<?xml version="1.0" encoding="utf-8"?>
<!-- Generator: Adobe Illustrator 27.5.0, SVG Export Plug-In . SVG Version: 6.00 Build 0)  -->
<svg version="1.1" xmlns="http://www.w3.org/2000/svg" xmlns:xlink="http://www.w3.org/1999/xlink" x="0px" y="0px"
	 viewBox="0 0 2200 2200" style="enable-background:new 0 0 2200 2200;" xml:space="preserve">
<g id="background">
	<rect style="fill:#FFFFFF;" width="2200" height="2200"/>
</g>
<g id="Objects">
	<g>
		<path style="fill:#1D2A30;" d="M687.444,1044.003H476.546c-17.633,0-31.927,14.294-31.927,31.927v125.711
			c0,17.633,14.294,31.927,31.927,31.927h210.898c17.633,0,31.927-14.294,31.927-31.927V1075.93
			C719.37,1058.297,705.076,1044.003,687.444,1044.003z"/>
		<path style="fill:#1D2A30;" d="M842.131,1233.567h210.898c17.633,0,31.927-14.294,31.927-31.927V1075.93
			c0-17.633-14.294-31.927-31.927-31.927H842.131c-17.633,0-31.927,14.294-31.927,31.927v125.711
			C810.204,1219.273,824.498,1233.567,842.131,1233.567z"/>
		<path style="fill:#1D2A30;" d="M1207.716,1233.567h210.898c17.633,0,31.927-14.294,31.927-31.927V1075.93
			c0-17.633-14.294-31.927-31.927-31.927h-210.898c-17.633,0-31.927,14.294-31.927,31.927v125.711
			C1175.789,1219.273,1190.083,1233.567,1207.716,1233.567z"/>
		<path style="fill:#1D2A30;" d="M687.444,1293.729H476.546c-17.633,0-31.927,14.294-31.927,31.927v125.711
			c0,17.633,14.294,31.927,31.927,31.927h210.898c17.633,0,31.927-14.294,31.927-31.927v-125.711
			C719.37,1308.023,705.076,1293.729,687.444,1293.729z"/>
		<path style="fill:#1D2A30;" d="M842.131,1483.294h210.898c17.633,0,31.927-14.294,31.927-31.927v-125.711
			c0-17.633-14.294-31.927-31.927-31.927H842.131c-17.633,0-31.927,14.294-31.927,31.927v125.711
			C810.204,1469,824.498,1483.294,842.131,1483.294z"/>
		<path style="fill:#1D2A30;" d="M842.131,1733.02h210.898c17.633,0,31.927-14.294,31.927-31.927v-125.711
			c0-17.633-14.294-31.927-31.927-31.927H842.131c-17.633,0-31.927,14.294-31.927,31.927v125.711
			C810.204,1718.726,824.498,1733.02,842.131,1733.02z"/>
		<path style="fill:#1D2A30;" d="M687.444,1543.455H476.546c-17.633,0-31.927,14.294-31.927,31.927v125.711
			c0,17.633,14.294,31.927,31.927,31.927h210.898c17.633,0,31.927-14.294,31.927-31.927v-125.711
			C719.37,1557.75,705.076,1543.455,687.444,1543.455z"/>
		<path style="fill:#1D2A30;" d="M1542.411,497.705h-36.624v114.152c0,49.449-40.238,89.687-89.699,89.687
			c-49.449,0-89.687-40.238-89.687-89.687V497.705h-132.963v114.152c0,49.449-40.238,89.687-89.687,89.687
			c-49.461,0-89.698-40.238-89.698-89.687V497.705H881.102v114.152c0,49.449-40.238,89.687-89.698,89.687
			c-49.449,0-89.687-40.238-89.687-89.687V497.705H568.753v114.152c0,49.449-40.238,89.687-89.687,89.687
			c-49.461,0-89.698-40.238-89.698-89.687V497.705h-36.624c-62.873,0-113.852,50.968-113.852,113.852v1139.254
			c0,62.43,50.602,113.032,113.032,113.032h1191.309c62.43,0,113.032-50.602,113.032-113.032V611.558
			C1656.264,548.674,1605.285,497.705,1542.411,497.705z M1584.356,1749.981c0,23.134-18.822,41.956-41.945,41.956H352.743
			c-23.123,0-41.945-18.822-41.945-41.956V985.083h1273.558V1749.981z"/>
		<path style="fill:#1D2A30;" d="M479.064,668.288L479.064,668.288c31.169,0,56.436-25.267,56.436-56.436v-219.26
			c0-31.169-25.267-56.436-56.436-56.436h0c-31.169,0-56.436,25.267-56.436,56.436v219.26
			C422.627,643.021,447.895,668.288,479.064,668.288z"/>
		<path style="fill:#1D2A30;" d="M791.406,668.288L791.406,668.288c31.169,0,56.436-25.267,56.436-56.436v-219.26
			c0-31.169-25.267-56.436-56.436-56.436h0c-31.169,0-56.436,25.267-56.436,56.436v219.26
			C734.97,643.021,760.237,668.288,791.406,668.288z"/>
		<path style="fill:#1D2A30;" d="M1103.748,668.288L1103.748,668.288c31.169,0,56.436-25.267,56.436-56.436v-219.26
			c0-31.169-25.267-56.436-56.436-56.436h0c-31.169,0-56.436,25.267-56.436,56.436v219.26
			C1047.312,643.021,1072.58,668.288,1103.748,668.288z"/>
		<path style="fill:#1D2A30;" d="M1416.091,668.288L1416.091,668.288c31.169,0,56.436-25.267,56.436-56.436v-219.26
			c0-31.169-25.267-56.436-56.436-56.436l0,0c-31.169,0-56.436,25.267-56.436,56.436v219.26
			C1359.655,643.021,1384.922,668.288,1416.091,668.288z"/>
		<path style="fill:#48B78C;" d="M1453.721,1708.198l-263.96-263.961c-18.63-18.63-18.63-48.836,0-67.466l69.026-69.026
			c18.63-18.63,48.836-18.63,67.466,0l158.46,158.459l325.931-325.928c18.63-18.63,48.836-18.63,67.466,0l69.026,69.026
			c18.63,18.63,18.63,48.836,0,67.466l-431.43,431.43C1498.59,1725.314,1470.838,1725.314,1453.721,1708.198z"/>
	</g>
</g>
</svg>
